<?xml version="1.0" standalone="no"?>
<!DOCTYPE svg PUBLIC "-//W3C//DTD SVG 1.1//EN" "http://www.w3.org/Graphics/SVG/1.1/DTD/svg11.dtd" >
<svg xmlns="http://www.w3.org/2000/svg" xmlns:xlink="http://www.w3.org/1999/xlink" version="1.1">
<metadata>
Created by FontForge 20170731 at Sat Apr  4 02:26:43 2009
 By Aleksey,,,
Copyright (c) 2009 by Nate Piekos. Blambot.com. All rights reserved.
</metadata>
<defs>
<font id="DisposableDroidBB-Italic" horiz-adv-x="477" >
  <font-face 
    font-family="DisposableDroid BB"
    font-weight="400"
    font-style="italic"
    font-stretch="normal"
    units-per-em="1000"
    panose-1="2 0 5 6 2 0 0 9 0 3"
    ascent="750"
    descent="-250"
    x-height="354"
    cap-height="532"
    bbox="-59 -180 864 620"
    underline-thickness="50"
    underline-position="-150"
    slope="-12"
    unicode-range="U+0020-2122"
  />
<missing-glyph horiz-adv-x="353" 
 />
    <glyph glyph-name="copyright" unicode="&#x28;C&#x29;" horiz-adv-x="833" 
d="M134 452h73l18 82h569l-18 -82h72l-79 -374h-72l-17 -77h-569l17 77h-73zM378 399l-14 -66h-74l-28 -132h74l-14 -65h278l19 90h-267l18 83h267l19 90h-278zM681 89l75 355h-534l-75 -355h534z" />
    <glyph glyph-name="registered" unicode="&#x28;R&#x29;" horiz-adv-x="873" 
d="M149 452h74l18 82h569l-18 -82h72l-79 -374h-72l-17 -77h-569l17 77h-74zM459 140h-106l-11 -51h106zM320 408h285l-15 -68h70l-29 -138h-69q-4 -17 -6.5 -31t-5 -27t-5.5 -26t-6 -29h158l75 355h-535l-75 -355h90zM566 317h-175l-19 -87h175z" />
    <glyph glyph-name=".notdef" horiz-adv-x="353" 
 />
    <glyph glyph-name=".null" horiz-adv-x="0" 
 />
    <glyph glyph-name="nonmarkingreturn" horiz-adv-x="333" 
 />
    <glyph glyph-name="space" unicode=" " horiz-adv-x="353" 
 />
    <glyph glyph-name="exclam" unicode="!" horiz-adv-x="205" 
d="M233 535l-76 -354h-89l76 354h89zM119 2h-89l19 89h89z" />
    <glyph glyph-name="quotedbl" unicode="&#x22;" horiz-adv-x="392" 
d="M228 532l-39 -182h-90l39 182h90zM407 532l-39 -182h-90l39 182h90z" />
    <glyph glyph-name="numbersign" unicode="#" horiz-adv-x="556" 
d="M314 534l-20 -92l93 -1l20 93h90l-20 -93h84l-19 -90h-84l-17 -82l83 -1l-19 -89h-84l-19 -90h-90l19 90h-93l-19 -90h-90l19 90h-83l20 91h83l17 81h-83l20 92l82 -1l20 92h90zM275 351l-17 -81l93 -1l17 82h-93z" />
    <glyph glyph-name="dollar" unicode="$" horiz-adv-x="461" 
d="M253 446l19 88h1h89h1l-19 -88h131l-19 -90h-264l-14 -66l265 -1l-29 -134h-67l-14 -66h-66l-19 -88h-90l19 87h-132l19 90h265l14 67q-67 0 -133 -0.5t-132 -0.5l29 135h66l14 67h66z" />
    <glyph glyph-name="percent" unicode="%" horiz-adv-x="778" 
d="M682 259l-14 -66h74l-27 -128h-74l-14 -65h-109l14 65h-74l27 128h74l14 66h109zM318 542l-14 -66h74l-27 -128h-74l-14 -65h-108l14 65h-74l27 128h74l14 66h108zM185 373h86l17 78h-86zM688 542l-21 -97h-67l-19 -90h-67l-19 -89h-67l-19 -91h-65l-20 -92h-67l-17 -81
h-90l19 89h68l20 92h65l19 90h67l19 90h67l19 90h67l19 89h89zM548 90h87l16 78h-87z" />
    <glyph glyph-name="ampersand" unicode="&#x26;" horiz-adv-x="545" 
d="M58 66l48 223h68l12 58h-65l25 119h76l14 66h203l-14 -66h72l-24 -113h-85l19 90h-181l-19 -89h86l-19 -91h95l-19 -89h92l-17 -81h74l-19 -91h-95l17 81h-71l-18 -83h-193l14 66h-76zM235 172l19 90h-69l-37 -172h155l18 82h-86z" />
    <glyph glyph-name="quotesingle" unicode="'" horiz-adv-x="220" 
d="M244 532l-39 -182h-90l39 182h90z" />
    <glyph glyph-name="parenleft" unicode="(" horiz-adv-x="278" 
d="M221 545l16 75h90l-19 -87h-70l-112 -531h70l-19 -87h-90l16 74h-70l118 556h70z" />
    <glyph glyph-name="parenright" unicode=")" horiz-adv-x="284" 
d="M125 -9l-16 -76h-90l19 87h71l112 531h-71l19 87h90l-16 -74h70l-118 -555h-70z" />
    <glyph glyph-name="asterisk" unicode="*" horiz-adv-x="398" 
d="M210 354l20 91h-90l18 84h108l-16 -73h56l16 73h103l-18 -84h-87l-20 -91h87l-18 -84h-103l16 72h-56l-16 -72h-108l18 84h90z" />
    <glyph glyph-name="plus" unicode="+" horiz-adv-x="483" 
d="M105 274l131 -1l28 132h91l-29 -133l133 -1l-19 -89h-133l-29 -132h-90l29 132h-132z" />
    <glyph glyph-name="comma" unicode="," horiz-adv-x="233" 
d="M164 92l-39 -182h-90l39 182h90z" />
    <glyph glyph-name="hyphen" unicode="-" horiz-adv-x="483" 
d="M99 274l354 -3l-19 -89h-356z" />
    <glyph glyph-name="period" unicode="." horiz-adv-x="250" 
d="M169 92l-19 -91h-91l19 91h91z" />
    <glyph glyph-name="slash" unicode="/" horiz-adv-x="546" 
d="M579 542l-21 -97h-67l-19 -90h-67l-19 -89h-67l-19 -91h-65l-20 -92h-67l-17 -81h-90l19 89h67l19 92h65l20 90h67l19 90h67l19 90h67l19 89h90z" />
    <glyph glyph-name="zero" unicode="0" horiz-adv-x="479" 
d="M434 532l-14 -68h66l-85 -398h-66l-14 -66h-223l14 66h-65l85 398h65l14 68h223zM392 442h-176l-75 -353h176z" />
    <glyph glyph-name="one" unicode="1" horiz-adv-x="290" 
d="M313 530l-113 -531h-89l94 443h-81l19 89z" />
    <glyph glyph-name="two" unicode="2" horiz-adv-x="466" 
d="M378 -1h-353l19 90h87l21 96h62l18 87h59l17 80h59l19 90h-181l-19 -89h-85l24 112h72l14 66h203l-14 -66h76l-25 -119h-59l-18 -82h-59l-18 -86h-62l-19 -89h181z" />
    <glyph glyph-name="three" unicode="3" horiz-adv-x="483" 
d="M328 64l-14 -66h-204l14 66h-72l24 112h85l-19 -88h182l38 177h-178l18 87h175l19 90h-181l-11 -55h-85l16 78h72l14 66h203l-14 -66h77l-25 -119h-66l-13 -59h68l-47 -223h-76z" />
    <glyph glyph-name="four" unicode="4" horiz-adv-x="454" 
d="M213 532l-38 -178h175l38 178h90l-113 -532h-90l56 264h-265l57 268h90z" />
    <glyph glyph-name="five" unicode="5" horiz-adv-x="478" 
d="M323 64l-14 -66h-204l14 66h-72l24 112h85l-19 -88h182l38 177h-267l57 265h351l-19 -88h-267l-19 -90h199l-14 -65h68l-47 -223h-76z" />
    <glyph glyph-name="six" unicode="6" horiz-adv-x="465" 
d="M386 352l-14 -66h74l-47 -223h-74l-14 -65h-203l14 65h-74q21 101 42.5 201t42.5 200h76l14 66h201l-19 -90h-192l-19 -88h192zM138 88h181l37 174h-181z" />
    <glyph glyph-name="seven" unicode="7" horiz-adv-x="444" 
d="M123 -1h-87l21 97h42l19 89h62l18 87h58l17 80h60l19 89h-222l19 90h353l-19 -90h-46l-20 -95h-60l-18 -82h-58l-18 -86h-62l-19 -89h-40z" />
    <glyph glyph-name="eight" unicode="8" horiz-adv-x="471" 
d="M105 -2l14 66h-74l47 223h54l14 64h-54l24 114h73l14 65h204l-14 -65h74l-24 -114h-51l-14 -64h51l-47 -223h-74l-14 -66h-203zM368 352l19 89h-173l-19 -89h173zM353 262h-181l-37 -174h181z" />
    <glyph glyph-name="nine" unicode="9" horiz-adv-x="472" 
d="M142 176l14 66h-74l47 223h74l14 65h204l-14 -65h74q-21 -101 -42 -200.5t-43 -200.5h-76l-14 -66h-202l19 90h193l19 88h-193zM391 440h-182l-37 -173h182z" />
    <glyph glyph-name="colon" unicode=":" horiz-adv-x="240" 
d="M196 273l-19 -91h-91l19 91h91zM156 91l-19 -91h-91l19 91h91z" />
    <glyph glyph-name="semicolon" unicode=";" horiz-adv-x="245" 
d="M162 92l-39 -182h-90l39 182h90zM201 279l-20 -91h-91l20 91h91z" />
    <glyph glyph-name="less" unicode="&#x3c;" horiz-adv-x="420" 
d="M300 183l-19 -92h67l-19 -89h-89l17 81h-67l20 92h-65l9 42h-87l20 97h87l11 49h67l19 90h67l19 89h89l-21 -97h-67l-19 -90h-67q-9 -44 -18 -86.5t-19 -85.5h65z" />
    <glyph glyph-name="equal" unicode="=" horiz-adv-x="478" 
d="M118 354l355 -2l-19 -90h-356zM82 182l354 -3l-19 -89h-356z" />
    <glyph glyph-name="greater" unicode="&#x3e;" horiz-adv-x="449" 
d="M200 361l20 91h-67l19 90h89l-17 -81h67l-20 -92h65l-9 -43h87l-21 -96h-87l-10 -49h-67l-19 -90h-67l-19 -89h-89l20 96h67l20 91h67q9 43 18 85.5t18 86.5h-65z" />
    <glyph glyph-name="question" unicode="?" 
d="M318 268l-19 -87h-90l37 174h136l19 89h-182l-11 -54h-85l16 77h72l15 67h204l-15 -67h76l-25 -119h-66l-17 -80h-65zM261 2h-90l19 89h90z" />
    <glyph glyph-name="at" unicode="@" horiz-adv-x="833" 
d="M565 354l-14 -66h74l-42 -199h91l75 355h-535l-94 -443h-89l96 451h73l18 82h569l-18 -82h72l-96 -451q-113 0 -228.5 -0.5t-230.5 -0.5l14 65h-74l29 136l267 -1l13 64h-193l19 90h204zM512 156h-182l-14 -66h182z" />
    <glyph glyph-name="A" unicode="A" 
d="M432 532l-14 -68h68l-99 -464h-90l38 176h-175l-38 -176h-90l99 464h72l14 68h215zM391 442h-175l-37 -176h175z" />
    <glyph glyph-name="B" unicode="B" horiz-adv-x="472" 
d="M429 532l-14 -68h69l-24 -113h-50l-18 -85h50l-42 -198h-69l-15 -69q-72 0 -143 0.5t-143 0.5l113 532h286zM351 264h-175l-37 -175h175zM389 441h-175l-18 -87h175z" />
    <glyph glyph-name="C" unicode="C" 
d="M499 532l-38 -180h-89l19 89h-176l-75 -352h262l-19 -90h-288l14 64h-63l85 401h63l14 68h291z" />
    <glyph glyph-name="D" unicode="D" horiz-adv-x="472" 
d="M436 532l-14 -68h68l-85 -398h-68l-14 -66h-287l113 532h287zM395 442h-176l-75 -353h176z" />
    <glyph glyph-name="E" unicode="E" horiz-adv-x="506" 
d="M521 532l-19 -90h-264l-18 -88h202l-20 -90h-202l-37 -175h264l-19 -90l-354 1l113 532h354z" />
    <glyph glyph-name="F" unicode="F" horiz-adv-x="454" 
d="M509 532l-19 -90h-265l-19 -88h203l-19 -90h-203l-56 -264h-89l113 532h354z" />
    <glyph glyph-name="G" unicode="G" 
d="M96 -1l15 69h-66l84 396h66l14 68h285l-19 -90h-262l-75 -352h176l39 180h90l-58 -271h-289z" />
    <glyph glyph-name="H" unicode="H" horiz-adv-x="489" 
d="M245 532l-38 -178h176l38 178h89l-113 -532h-89l56 264h-176l-56 -264h-89l113 532h89z" />
    <glyph glyph-name="I" unicode="I" horiz-adv-x="233" 
d="M246 532l-113 -532h-90l113 532h90z" />
    <glyph glyph-name="J" unicode="J" 
d="M30 -1l19 91h265l75 352h-262l19 90l352 -1l-98 -463h-66l-15 -69h-289z" />
    <glyph glyph-name="K" unicode="K" horiz-adv-x="483" 
d="M242 532l-38 -178h86l20 90h89l18 88h90l-24 -113h-68l-14 -67h-63l-18 -86h63l-15 -68h68l-42 -198h-90l38 178h-89l18 86h-86l-56 -264h-90l113 532h90z" />
    <glyph glyph-name="L" unicode="L" horiz-adv-x="449" 
d="M144 89h265l-19 -90l-355 1l113 531h90z" />
    <glyph glyph-name="M" unicode="M" horiz-adv-x="568" 
d="M240 532l-19 -89h53l-19 -89h58l-18 -88h43l18 88h57l19 89h53l19 89h90l-113 -532h-90l75 353h-29l-19 -89h-61l-18 -88h-84l18 88h-61l19 89h-29l-75 -353h-90l113 532h90z" />
    <glyph glyph-name="N" unicode="N" horiz-adv-x="483" 
d="M242 532l-19 -91h73l-19 -88h57l-18 -85h45l56 264h90l-113 -532h-90l38 178h-73l18 86h-57l19 88h-45l-75 -352h-90l113 532h90z" />
    <glyph glyph-name="O" unicode="O" 
d="M434 532l-14 -68h66l-85 -398h-66l-14 -66h-223l14 66h-65l85 398h65l14 68h223zM392 442h-176l-75 -353h176z" />
    <glyph glyph-name="P" unicode="P" horiz-adv-x="460" 
d="M30 -1l113 532q72 0 142.5 0.5t142.5 0.5l-14 -69h70l-42 -198h-50l-18 -85l-216 -3l-38 -177zM389 442h-175l-37 -175h175z" />
    <glyph glyph-name="Q" unicode="Q" horiz-adv-x="483" 
d="M439 532l-14 -68h66l-85 -398h-66l-11 -51h67l-19 -89h-85l16 74h-205l14 66h-65l85 398h65l14 68h223zM276 89h46l75 353h-176l-75 -353h45l19 87h85z" />
    <glyph glyph-name="R" unicode="R" horiz-adv-x="489" 
d="M439 198l-42 -198h-90l38 178h-69l18 86h-106l-56 -265l-90 1l113 532h285l-14 -68h70l-29 -138h-69q-4 -20 -7.5 -35t-6.5 -29.5t-6 -29.5t-7 -34h68zM401 441h-175l-18 -87h175z" />
    <glyph glyph-name="S" unicode="S" 
d="M495 531l-19 -90h-264l-18 -87h198l-14 -66h67l-48 -222h-67l-14 -67h-288l19 90h265l37 175l-198 1l13 64h-66l29 136h66l14 67z" />
    <glyph glyph-name="T" unicode="T" horiz-adv-x="409" 
d="M444 441h-131l-94 -443h-90l94 443h-131l19 90h352z" />
    <glyph glyph-name="U" unicode="U" horiz-adv-x="478" 
d="M403 66h-66l-14 -66h-223l14 66h-66l99 464h90l-94 -441h175l94 441h90z" />
    <glyph glyph-name="V" unicode="V" 
d="M236 532l-75 -354h62l-19 -90h50l19 90h63l75 354h90l-80 -379h-63l-17 -78h-69l-16 -75h-90l16 75h-70l17 78h-63l80 379h90z" />
    <glyph glyph-name="W" unicode="W" horiz-adv-x="562" 
d="M385 0l19 89h-53l19 89h-58l19 88h-43l-19 -88h-57l-19 -89h-53l-19 -89h-90l113 532h90l-75 -354h28l19 89h61l19 88h85l-19 -88h61l-19 -89h29l75 354h89l-113 -532h-89z" />
    <glyph glyph-name="X" unicode="X" horiz-adv-x="489" 
d="M288 444l-16 -74h54l16 74h61l18 88h90l-24 -113h-68l-14 -67h-47l-18 -86h47l-15 -68h68l-42 -198h-90l38 178h-61l14 64h-54l-14 -64h-61l-38 -178h-90l42 198h68l15 68h47l18 86h-47l14 67h-68l24 113h90l-18 -88h61z" />
    <glyph glyph-name="Y" unicode="Y" horiz-adv-x="466" 
d="M164 0l57 266h-65l14 68h-68l42 198h90l-38 -179h61l-13 -63h54l13 63h62l38 179h89l-42 -198h-68l-14 -68h-65l-57 -266h-90z" />
    <glyph glyph-name="Z" unicode="Z" horiz-adv-x="455" 
d="M471 441h-46l-20 -95h-60l-18 -82h-58l-18 -86h-62l-19 -89h226l-19 -90h-353l19 90h41l21 96h63l18 87h58l17 80h60l19 89h-222l19 90h353z" />
    <glyph glyph-name="bracketleft" unicode="[" horiz-adv-x="272" 
d="M326 620l-19 -87h-70l-112 -531h70l-19 -87h-160l150 705h160z" />
    <glyph glyph-name="backslash" unicode="\" horiz-adv-x="523" 
d="M230 542l-19 -89h67l-19 -90h67l-19 -90h67l-20 -90h65l-19 -92h67l-19 -89h-89l17 81h-67l20 92h-65l19 91h-67l19 89h-68l19 90h-67l21 97h90z" />
    <glyph glyph-name="bracketright" unicode="]" horiz-adv-x="295" 
d="M23 -85l19 87h70l112 531h-70l19 87h160l-150 -705h-160z" />
    <glyph glyph-name="asciicircum" unicode="^" horiz-adv-x="415" 
d="M242 456l16 76h90l-16 -76h87l-21 -102h-103l19 89h-56l-19 -89h-109l21 102h91z" />
    <glyph glyph-name="underscore" unicode="_" horiz-adv-x="483" 
d="M48 92l355 -2l-19 -89h-355z" />
    <glyph glyph-name="grave" unicode="`" horiz-adv-x="256" 
d="M215 523l-17 -82h67l-19 -91h-91l17 82h-67l19 91h91z" />
    <glyph glyph-name="a" unicode="a" horiz-adv-x="494" 
d="M391 355l-14 -66h74l-61 -288h-278l14 65h-74l29 136h267l13 63h-193l19 90h204zM338 157h-182l-14 -66h182z" />
    <glyph glyph-name="b" unicode="b" horiz-adv-x="483" 
d="M242 534l-39 -180h188l-14 -66h74l-47 -222h-74l-14 -65q-71 0 -139 0.5t-137 0.5q28 134 56 266t57 266h89zM147 91h177l37 172h-177z" />
    <glyph glyph-name="c" unicode="c" horiz-adv-x="478" 
d="M453 355l-19 -90h-267l-37 -174h267l-19 -90h-278l14 65h-74l47 223h74l14 66h278z" />
    <glyph glyph-name="d" unicode="d" horiz-adv-x="500" 
d="M514 532q-28 -134 -56 -265t-56 -265q-70 0 -139 -0.5t-140 -0.5l14 65h-74l48 223h74l14 67h188l37 176h90zM368 265h-177l-37 -174h177z" />
    <glyph glyph-name="e" unicode="e" horiz-adv-x="482" 
d="M110 1l14 66h-74l47 223h74l14 65h203l-14 -65h74l-28 -134l-266 1l-14 -66h193l-19 -90h-204zM163 201h181l14 63h-181z" />
    <glyph glyph-name="f" unicode="f" horiz-adv-x="466" 
d="M120 1h-85l100 468h74l14 65h204l-14 -65h74l-30 -140h-85l24 115h-182l-37 -177h150l-19 -89h-150z" />
    <glyph glyph-name="g" unicode="g" horiz-adv-x="483" 
d="M107 1l14 66h-74l47 221h74l14 66h188l19 90h90l-23 -107h-74l-10 -49h74q-22 -100 -43 -199.5t-42 -199.5h-76l-14 -66h-201l19 90h192l19 88h-193zM355 263h-182l-36 -172h182z" />
    <glyph glyph-name="h" unicode="h" horiz-adv-x="495" 
d="M244 535l-38 -180h188l-14 -66h74l-62 -289h-85l56 265h-177l-56 -265h-90l114 535h90z" />
    <glyph glyph-name="i" unicode="i" horiz-adv-x="250" 
d="M219 354l-74 -352h-90l74 352h90zM257 533l-19 -89h-90l19 89h90z" />
    <glyph glyph-name="j" unicode="j" horiz-adv-x="244" 
d="M219 354l-75 -352l-24 -115h-74l-14 -65h-91l19 91l75 1q13 61 24.5 114.5t22.5 106t22.5 106t24.5 115.5zM167 533h90l-19 -89h-90z" />
    <glyph glyph-name="k" unicode="k" horiz-adv-x="495" 
d="M248 535l-56 -267h98l19 88h74l19 90h90l-24 -114h-74l-28 -130h74l-44 -202h-85l39 178h-177l-39 -178h-90l114 535h90z" />
    <glyph glyph-name="l" unicode="l" horiz-adv-x="244" 
d="M256 535l-114 -533h-90l114 533h90z" />
    <glyph glyph-name="m" unicode="m" horiz-adv-x="585" 
d="M499 355l-14 -66h74l-61 -289h-85l56 265h-95l-56 -265h-85l56 265h-93l-56 -265h-90l75 354z" />
    <glyph glyph-name="n" unicode="n" horiz-adv-x="489" 
d="M401 355l-14 -66h74l-61 -289h-85l56 265h-177l-56 -265h-90l75 354z" />
    <glyph glyph-name="o" unicode="o" 
d="M392 355l-14 -66h74l-47 -223h-74l-14 -65h-204l14 65h-74l47 223h74l14 66h204zM143 91h182l37 174h-182z" />
    <glyph glyph-name="p" unicode="p" horiz-adv-x="489" 
d="M12 -180q29 134 56.5 266.5t56.5 266.5q70 0 138.5 0.5t139.5 0.5l-13 -65h74l-48 -223h-74l-14 -66h-188l-38 -180h-90zM160 91h177l36 173h-177z" />
    <glyph glyph-name="q" unicode="q" horiz-adv-x="488" 
d="M264 -180l38 180h-188l14 66h-74l48 223h74l13 65q71 0 139.5 -0.5t137.5 -0.5q-29 -134 -56.5 -266.5t-56.5 -266.5h-89zM358 264h-177l-36 -173h177z" />
    <glyph glyph-name="r" unicode="r" horiz-adv-x="461" 
d="M395 355l-14 -66h74l-23 -108h-85l18 84h-177l-56 -265h-90l75 354z" />
    <glyph glyph-name="s" unicode="s" horiz-adv-x="483" 
d="M460 358l-19 -90h-264l-14 -66l265 -1l-28 -134h-67l-14 -66h-288l19 89h265l14 67h-265l28 135h66l15 67z" />
    <glyph glyph-name="t" unicode="t" horiz-adv-x="398" 
d="M195 359h182l-19 -90h-182l-38 -177h181l-20 -91h-191l14 65h-74l80 378h85z" />
    <glyph glyph-name="u" unicode="u" 
d="M110 0l14 66h-74l61 289h85l-56 -264h177l56 264h90l-75 -353z" />
    <glyph glyph-name="v" unicode="v" 
d="M112 355h85l-37 -173h53l-19 -92h72l19 92h52l37 173h90l-42 -196h-54l-19 -89h-78l-14 -69h-88l14 69h-82l19 89h-50z" />
    <glyph glyph-name="w" unicode="w" horiz-adv-x="580" 
d="M117 0l14 66h-74l61 289h85l-56 -264h94l56 264h85l-56 -264h94l56 264h89l-75 -353z" />
    <glyph glyph-name="x" unicode="x" horiz-adv-x="494" 
d="M199 356l-28 -132h183l28 132h90l-26 -122h-65l-24 -113h65l-25 -119h-90l28 132h-183l-28 -132h-90l25 119h63l24 113h-63l26 122h90z" />
    <glyph glyph-name="y" unicode="y" horiz-adv-x="494" 
d="M115 1l14 66h-74l61 287h85l-56 -263h182l56 263h85l-98 -465h-76l-14 -66h-201l19 90h192l18 88h-193z" />
    <glyph glyph-name="z" unicode="z" horiz-adv-x="483" 
d="M109 358h354l-20 -91h-90l-24 -110h-84l-14 -66l175 -1l-19 -89h-355l19 91h90l23 108l84 1l15 67h-174z" />
    <glyph glyph-name="braceleft" unicode="{" horiz-adv-x="302" 
d="M157 195l28 133h-69l45 214h70l17 78h90l-19 -87h-70l-39 -185h69l-36 -170h-69l-37 -176h70l-19 -87h-90l16 74h-70l44 206h69z" />
    <glyph glyph-name="bar" unicode="|" horiz-adv-x="494" 
d="M494 441h-132l-75 -352h132l-19 -90h-353l19 90h132l75 352h-132l19 90h353z" />
    <glyph glyph-name="braceright" unicode="}" horiz-adv-x="301" 
d="M211 341l-29 -134h69l-45 -214h-70l-17 -78h-90l19 87h70l39 186h-69l36 169h69l37 176h-70l19 87h90l-16 -74h70l-43 -205h-69z" />
    <glyph glyph-name="asciitilde" unicode="~" horiz-adv-x="534" 
d="M329 181h67l20 94h93l-21 -98l-68 -1l-18 -84l-116 -1l18 85h-69l19 89h-70l-19 -88l-93 -1l21 99h69l17 79l116 1l-16 -80h70z" />
    <glyph glyph-name="cent" unicode="&#xa2;" horiz-adv-x="494" 
d="M493 445l-19 -90h-88l-37 -174h88l-20 -90h-88l-19 -90h-89l19 90h-101l14 65h-74l48 223h74l14 66h101l19 89h89l-19 -89h88zM260 181l37 174h-90l-37 -174h90z" />
    <glyph glyph-name="quoteleft" unicode="&#x2018;" horiz-adv-x="223" 
d="M244 532l-39 -182h-90l39 182h90z" />
    <glyph glyph-name="quoteright" unicode="&#x2019;" horiz-adv-x="225" 
d="M244 532l-39 -182h-90l39 182h90z" />
    <glyph glyph-name="quotedblleft" unicode="&#x201c;" horiz-adv-x="400" 
d="M236 532l-39 -182h-90l39 182h90zM415 532l-39 -182h-90l39 182h90z" />
    <glyph glyph-name="quotedblright" unicode="&#x201d;" horiz-adv-x="401" 
d="M252 532l-39 -182h-90l39 182h90zM431 532l-39 -182h-90l39 182h90z" />
    <glyph glyph-name="ellipsis" unicode="&#x2026;" horiz-adv-x="750" 
d="M153 92l-19 -91h-91l19 91h91zM403 92l-19 -91h-91l19 91h91zM653 92l-19 -91h-91l19 91h91z" />
    <glyph glyph-name="Euro" unicode="&#x20ac;" horiz-adv-x="578" 
d="M578 532l-19 -91h-265l-10 -48l190 -1l-19 -90h-190l-18 -82l190 -1l-19 -89h-190l-9 -41h262l-19 -90h-288l14 64h-63l14 67h-77l21 92l75 -1l18 81h-77l20 92l76 -1l15 71h63l14 68h291z" />
    <glyph glyph-name="trademark" unicode="&#x2122;" horiz-adv-x="686" 
d="M363 471h-84l-59 -282h-57l59 282h-83l13 57h224zM494 529l-12 -57h34l-12 -57h36l-12 -55h28l12 55h36l12 57h34l12 57h57l-72 -339h-57l48 225h-19l-13 -57h-39l-11 -56h-53l11 56h-39l13 57h-18l-48 -225h-57l72 339h57z" />
    </font>
</defs>
</svg>
